<?xml version="1.0" encoding="utf-8"?>
<!-- Generator: Adobe Illustrator 16.0.0, SVG Export Plug-In . SVG Version: 6.00 Build 0)  -->
<!DOCTYPE svg PUBLIC "-//W3C//DTD SVG 1.1//EN" "http://www.w3.org/Graphics/SVG/1.1/DTD/svg11.dtd">
<svg version="1.1" id="Capa_1" xmlns="http://www.w3.org/2000/svg" xmlns:xlink="http://www.w3.org/1999/xlink" x="0px" y="0px"
	 width="45px" height="45px" viewBox="0 0 45 45" enable-background="new 0 0 45 45" xml:space="preserve">
<path fill-rule="evenodd" clip-rule="evenodd" fill="#FFFFFF" d="M34.031,10.9c-3.059-3.063-7.127-4.75-11.463-4.75
	c-8.933,0-16.201,7.268-16.204,16.201c-0.002,2.855,0.744,5.645,2.162,8.102L6.227,38.85l8.591-2.254
	c2.366,1.293,5.032,1.971,7.744,1.973h0.006l0,0c8.932,0,16.201-7.271,16.205-16.203C38.775,18.035,37.091,13.963,34.031,10.9
	 M22.568,35.832h-0.004c-2.419,0-4.788-0.648-6.856-1.877l-0.492-0.291L10.118,35l1.362-4.971l-0.321-0.51
	c-1.348-2.145-2.06-4.621-2.06-7.166c0.003-7.426,6.044-13.469,13.475-13.469c3.598,0.002,6.979,1.404,9.523,3.949
	c2.541,2.547,3.941,5.932,3.939,9.529C36.033,29.789,29.994,35.832,22.568,35.832 M29.958,25.744
	c-0.408-0.201-2.398-1.182-2.77-1.318c-0.369-0.133-0.641-0.199-0.91,0.203c-0.27,0.406-1.045,1.318-1.283,1.588
	c-0.234,0.271-0.473,0.305-0.875,0.104c-0.404-0.205-1.711-0.631-3.258-2.01c-1.204-1.076-2.017-2.4-2.253-2.807
	c-0.235-0.406-0.024-0.625,0.179-0.826c0.181-0.182,0.405-0.473,0.606-0.709c0.203-0.236,0.27-0.404,0.404-0.676
	c0.135-0.27,0.068-0.504-0.033-0.709c-0.102-0.203-0.911-2.197-1.248-3.008c-0.328-0.789-0.662-0.682-0.91-0.693
	c-0.237-0.012-0.506-0.016-0.777-0.016c-0.27,0-0.709,0.104-1.079,0.508c-0.372,0.404-1.417,1.385-1.417,3.379
	c0,1.99,1.45,3.916,1.652,4.188c0.203,0.271,2.856,4.359,6.919,6.115c0.965,0.416,1.719,0.664,2.307,0.852
	c0.971,0.309,1.854,0.266,2.551,0.16c0.777-0.117,2.396-0.979,2.732-1.924c0.338-0.947,0.338-1.758,0.236-1.928
	C30.63,26.049,30.361,25.947,29.958,25.744"/>
<g display="none">
	<path display="inline" fill="#FFFFFF" d="M41.124,36.833H3.878c-0.443,0-0.845-0.266-1.015-0.676
		c-0.172-0.408-0.08-0.879,0.232-1.195l12.466-12.633L3.105,10.05C2.789,9.737,2.69,9.263,2.86,8.851
		c0.169-0.412,0.571-0.684,1.018-0.684h37.246c0.443,0,0.842,0.268,1.012,0.676c0.172,0.41,0.082,0.879-0.229,1.195L29.438,22.673
		l12.455,12.279c0.318,0.313,0.416,0.787,0.246,1.199C41.971,36.563,41.569,36.833,41.124,36.833z M6.508,34.634H38.44
		L27.893,24.237l-4.352,4.412c-0.425,0.436-1.122,0.436-1.554,0.01l-4.859-4.787L6.508,34.634z M6.559,10.366l16.189,15.957
		l15.745-15.957H6.559z"/>
	<path display="inline" fill="#FFFFFF" d="M41.124,36.759H3.878c-0.606,0-1.1-0.492-1.1-1.098V9.267c0-0.605,0.493-1.1,1.1-1.1
		h37.246c0.607,0,1.1,0.494,1.1,1.1v26.395C42.223,36.267,41.731,36.759,41.124,36.759z M4.977,34.56h35.047V10.366H4.977V34.56z"/>
</g>
<path display="none" fill="#FFFFFF" d="M32.377,26.563c-0.699-0.727-1.539-1.111-2.428-1.111c-0.883,0-1.73,0.379-2.455,1.104
	l-2.27,2.262c-0.188-0.1-0.373-0.191-0.555-0.287c-0.257-0.127-0.5-0.25-0.709-0.379c-2.125-1.35-4.058-3.109-5.909-5.385
	c-0.897-1.135-1.5-2.088-1.937-3.057c0.588-0.541,1.133-1.102,1.665-1.641c0.2-0.199,0.401-0.406,0.604-0.607
	c1.506-1.51,1.506-3.463,0-4.969l-1.963-1.961c-0.221-0.223-0.451-0.453-0.666-0.68c-0.432-0.445-0.885-0.906-1.35-1.338
	C13.708,7.824,12.875,7.459,12,7.459c-0.875,0-1.722,0.365-2.439,1.055L9.546,8.529l-2.441,2.463
	c-0.921,0.918-1.443,2.039-1.559,3.338c-0.172,2.096,0.445,4.049,0.919,5.326c1.163,3.137,2.901,6.045,5.491,9.16
	c3.146,3.756,6.93,6.723,11.25,8.809c1.651,0.783,3.856,1.711,6.317,1.867c0.152,0.008,0.309,0.016,0.453,0.016
	c1.66,0,3.053-0.598,4.145-1.781c0.004-0.014,0.02-0.021,0.027-0.035c0.371-0.453,0.803-0.863,1.258-1.301
	c0.307-0.295,0.623-0.602,0.932-0.926c0.711-0.74,1.082-1.602,1.082-2.482c0-0.891-0.381-1.746-1.104-2.465L32.377,26.563z
	 M34.944,34.123C34.938,34.123,34.938,34.129,34.944,34.123c-0.279,0.301-0.564,0.574-0.873,0.875
	c-0.467,0.445-0.941,0.914-1.387,1.436c-0.725,0.777-1.578,1.143-2.699,1.143c-0.109,0-0.223,0-0.33-0.008
	c-2.133-0.137-4.113-0.969-5.6-1.68c-4.065-1.967-7.633-4.76-10.598-8.299c-2.447-2.949-4.084-5.678-5.168-8.607
	c-0.667-1.787-0.913-3.182-0.803-4.494c0.071-0.842,0.394-1.537,0.991-2.133l2.449-2.447c0.351-0.33,0.725-0.512,1.09-0.512
	c0.452,0,0.818,0.273,1.049,0.504l0.021,0.023c0.438,0.406,0.853,0.83,1.294,1.285c0.221,0.229,0.451,0.459,0.68,0.695l1.96,1.959
	c0.762,0.76,0.762,1.465,0,2.227c-0.208,0.209-0.409,0.414-0.616,0.617c-0.604,0.617-1.179,1.191-1.803,1.752
	c-0.015,0.014-0.028,0.02-0.035,0.035c-0.618,0.619-0.502,1.221-0.374,1.627l0.022,0.068c0.51,1.232,1.227,2.396,2.318,3.781
	l0.007,0.008c1.982,2.439,4.071,4.344,6.375,5.801c0.295,0.186,0.598,0.338,0.883,0.482c0.26,0.129,0.504,0.252,0.713,0.379
	c0.027,0.014,0.057,0.037,0.084,0.051c0.244,0.123,0.477,0.18,0.71,0.18c0.597,0,0.972-0.373,1.093-0.496l2.455-2.455
	c0.244-0.244,0.633-0.537,1.084-0.537c0.445,0,0.813,0.279,1.033,0.523l3.971,3.969C35.678,32.607,35.678,33.361,34.944,34.123
	L34.944,34.123z M34.944,34.123 M23.875,13.584c1.883,0.314,3.59,1.205,4.954,2.57c1.365,1.363,2.248,3.07,2.57,4.953
	c0.08,0.477,0.49,0.805,0.955,0.805c0.057,0,0.107-0.008,0.166-0.016c0.531-0.084,0.881-0.588,0.795-1.119
	c-0.387-2.275-1.463-4.352-3.107-5.996c-1.645-1.643-3.719-2.719-5.996-3.107c-0.53-0.086-1.026,0.266-1.12,0.789
	S23.344,13.496,23.875,13.584L23.875,13.584z M23.875,13.584 M39.469,20.496c-0.641-3.748-2.404-7.156-5.121-9.871
	c-2.711-2.715-6.123-4.479-9.869-5.117c-0.526-0.096-1.02,0.264-1.114,0.787c-0.088,0.531,0.266,1.027,0.798,1.123
	c3.345,0.566,6.396,2.15,8.822,4.572c2.428,2.426,4.006,5.477,4.572,8.822c0.082,0.475,0.49,0.805,0.957,0.805
	c0.057,0,0.107-0.008,0.164-0.016C39.204,21.521,39.561,21.02,39.469,20.496L39.469,20.496z M39.469,20.496"/>
</svg>
