<svg width="30" height="30" viewBox="0 0 30 30" xmlns="http://www.w3.org/2000/svg"><path d="M18.086 8.281c2.02.081 2.962 1.05 3.07 3.07.026.78.053 1.023.053 3.015 0 1.993 0 2.235-.054 3.016-.08 2.02-1.023 2.961-3.07 3.07-.78.026-1.022.053-3.015.053-1.992 0-2.235 0-3.015-.054-2.02-.08-2.962-1.05-3.07-3.07-.027-.78-.054-1.022-.054-3.015 0-1.992 0-2.235.054-3.015.081-2.02 1.023-2.962 3.07-3.07.78-.027 1.023-.054 3.015-.054 1.993 0 2.235 0 3.016.054Zm-3.016-1.4c-2.02 0-2.288 0-3.07.054-2.719.135-4.226 1.615-4.334 4.335-.027.808-.054 1.05-.054 3.07 0 2.019 0 2.288.054 3.069.135 2.72 1.615 4.227 4.335 4.335.808.026 1.05.053 3.07.053 2.019 0 2.288 0 3.069-.053 2.719-.135 4.227-1.616 4.334-4.335.027-.808.054-1.05.054-3.07 0-2.02 0-2.288-.053-3.07-.135-2.719-1.616-4.226-4.335-4.334-.781-.054-1.05-.054-3.07-.054Zm0 3.635a3.82 3.82 0 0 0-3.823 3.823 3.82 3.82 0 0 0 3.823 3.824 3.82 3.82 0 0 0 3.823-3.824c0-2.1-1.723-3.823-3.823-3.823Zm0 6.327a2.47 2.47 0 0 1-2.477-2.477 2.47 2.47 0 0 1 2.477-2.477 2.47 2.47 0 0 1 2.477 2.477 2.488 2.488 0 0 1-2.477 2.477Zm3.985-7.377a.896.896 0 0 0-.888.888c0 .485.403.889.888.889a.896.896 0 0 0 .889-.889.896.896 0 0 0-.889-.888Z" fill="currentColor"></path></svg>